<svg viewBox="0 0 1034 883" fill="none" xmlns="http://www.w3.org/2000/svg">
<g clip-path="url(#clip0_2_17)">
<g clip-path="url(#clip1_2_17)">
<path d="M1033.51 -6.10352e-05H0V882.2H1033.51V-6.10352e-05Z" fill="white"/>
<path d="M688.85 802.6L760.62 560.23H799.85L727.78 802.6H688.85Z" fill="black"/>
<path d="M950.99 672.75V699.51L816.88 769.15V722.01L870.4 694.94L889.56 687.34V685.21L870.4 677.61L816.88 650.54V603.1L950.99 672.74V672.75Z" fill="black"/>
<path d="M278.28 96.89C333.07 96.15 373.75 142.18 373.31 196.67C373.76 250.87 333.07 297.19 278.28 296.45H100.69V96.89H278.28ZM263.73 160.14H178.5V233.19H263.73C283.92 233.19 295.36 216.71 295.36 196.66C295.36 176.61 283.93 160.13 263.73 160.13V160.14Z" fill="black"/>
<path d="M392.48 96.96H626.04V148.04H470.28V173.58H626.04V219.76H470.28V245.3H626.04V296.53H392.48V96.96Z" fill="black"/>
<path d="M784.34 235.42L845.22 96.8799H932.82L830.52 296.44H738.02L635.86 96.8799H723.46L784.34 235.42Z" fill="black"/>
<path d="M292.98 339.26C334.11 338.81 369 373.41 368.41 414.69C368.41 429.69 364.4 443.35 356.38 455.52C348.51 467.55 337.97 476.75 324.9 482.84L368.41 538.82H285.56L247.99 490.12H178.5V538.82H100.69V339.26H292.98ZM178.5 397.61V431.61H273.38C278.13 431.61 282.14 429.98 285.41 426.71C288.83 423.29 290.46 419.29 290.46 414.68C290.46 405.18 282.89 397.6 273.38 397.6H178.5V397.61Z" fill="black"/>
<path d="M392.48 339.41H626.04V390.49H470.28V416.03H626.04V462.21H470.28V487.75H626.04V538.98H392.48V339.42V339.41Z" fill="black"/>
<path d="M745.14 339.11V475.42H900.9V538.67H667.34V339.11H745.14Z" fill="black"/>
<path d="M368.41 727.67C368.86 762.56 339.46 781.27 305.16 781.27H100.69V581.71H290.45C325.05 581.56 354.3 600.42 353.85 635.16C353.85 654.31 344.94 669.01 330.69 678.07C353.26 685.35 368.4 702.57 368.4 727.66L368.41 727.67ZM178.5 629.08V655.96H268.63C275.31 655.96 280.81 649.13 280.81 642.45C280.81 635.77 275.32 629.09 268.63 629.09H178.5V629.08ZM283.18 733.76C289.86 733.76 295.36 727.08 295.36 720.4C295.36 713.72 289.87 707.04 283.18 707.04H178.5V733.77H283.18V733.76Z" fill="#4BA547"/>
<path d="M587.06 581.71C628.19 581.26 663.08 615.86 662.49 657.14C662.49 672.14 658.48 685.8 650.46 697.97C642.59 710 632.05 719.2 618.98 725.29L662.49 781.27H579.64L542.07 732.57H472.58V781.27H394.78V581.71H587.07H587.06ZM472.58 640.06V674.06H567.46C572.21 674.06 576.22 672.43 579.49 669.16C582.76 665.89 584.54 661.74 584.54 657.13C584.54 647.63 576.97 640.05 567.46 640.05H472.58V640.06Z" fill="#FFCF3F"/>
</g>
</g>
<defs>
<clipPath id="clip0_2_17">
<rect width="1033.51" height="882.2" fill="white" transform="translate(0 0.199951)"/>
</clipPath>
<clipPath id="clip1_2_17">
<rect width="1033.51" height="882.2" fill="white"/>
</clipPath>
</defs>
</svg>
